<?xml version="1.0" encoding="utf-8"?>
<!-- Generator: Adobe Illustrator 22.1.0, SVG Export Plug-In . SVG Version: 6.00 Build 0)  -->
<svg version="1.1" id="_x33_DModel_x5F_Icon" xmlns="http://www.w3.org/2000/svg" xmlns:xlink="http://www.w3.org/1999/xlink"
	 x="0px" y="0px" viewBox="0 0 612.9 727.8" style="enable-background:new 0 0 612.9 727.8;" xml:space="preserve">
<g>
	<path d="M76.4,670.8c0,19.1,0,38,0,57c-6.4,0-12.4,0-19,0c0-12.6,0-25.1,0-37.9c-12.9,0-25.4,0-38.3,0c0,12.5,0,25,0,37.8
		c-6.6,0-12.8,0-19.1,0C0,485.2,0,242.8,0,0.1c6.1,0,12.3,0,18.9,0c0,12.5,0,25.1,0,37.8c12.9,0,25.4,0,38.3,0c0-12.5,0-25.1,0-37.9
		C63.8,0,70,0,76.4,0c0,19,0,37.8,0,57c153.4,0,306.5,0,460,0c0-18.9,0-37.9,0-57c6.5,0,12.6,0,19.1,0c0,12.6,0,25.1,0,37.9
		c12.9,0,25.4,0,38.3,0c0-12.5,0-25,0-37.8c6.6,0,12.8,0,19.1,0c0,242.5,0,484.9,0,727.6c-6.1,0-12.3,0-18.9,0c0-12.5,0-25.1,0-37.8
		c-12.9,0-25.4,0-38.3,0c0,12.5,0,25.1,0,37.9c-6.6,0-12.8,0-19.2,0c0-19,0-37.8,0-57C383.1,670.8,230,670.8,76.4,670.8z
		 M76.7,593.6c153.4,0,306.4,0,459.4,0c0-153.3,0-306.4,0-459.4c-153.3,0-306.3,0-459.4,0C76.7,287.4,76.7,440.4,76.7,593.6z
		 M19.3,76.7c0,12.9,0,25.4,0,37.8c12.8,0,25.4,0,37.8,0c0-12.8,0-25.2,0-37.8C44.5,76.7,32,76.7,19.3,76.7z M555.7,114.6
		c12.9,0,25.4,0,37.8,0c0-12.8,0-25.4,0-37.8c-12.8,0-25.2,0-37.8,0C555.7,89.4,555.7,101.8,555.7,114.6z M19.3,153.3
		c0,12.9,0,25.4,0,37.8c12.8,0,25.4,0,37.9,0c0-12.8,0-25.2,0-37.8C44.5,153.3,32,153.3,19.3,153.3z M593.6,191.3
		c0-12.9,0-25.4,0-37.8c-12.8,0-25.4,0-37.8,0c0,12.8,0,25.2,0,37.8C568.4,191.3,580.9,191.3,593.6,191.3z M57.2,230.1
		c-12.9,0-25.4,0-37.8,0c0,12.8,0,25.4,0,37.8c12.8,0,25.2,0,37.8,0C57.2,255.3,57.2,242.8,57.2,230.1z M593.6,268
		c0-12.9,0-25.4,0-37.8c-12.8,0-25.4,0-37.8,0c0,12.8,0,25.2,0,37.8C568.4,268,580.9,268,593.6,268z M57.2,306.7
		c-12.9,0-25.4,0-37.8,0c0,12.8,0,25.4,0,37.9c12.8,0,25.2,0,37.8,0C57.2,331.9,57.2,319.5,57.2,306.7z M555.8,306.6
		c0,12.9,0,25.4,0,37.8c12.8,0,25.4,0,37.8,0c0-12.8,0-25.2,0-37.8C581,306.6,568.6,306.6,555.8,306.6z M57.2,383.3
		c-12.9,0-25.4,0-37.9,0c0,12.8,0,25.3,0,37.9c12.8,0,25.3,0,37.9,0C57.2,408.4,57.2,396,57.2,383.3z M593.7,383.3
		c-12.7,0-25.3,0-37.9,0c0,12.8,0,25.3,0,37.8c12.8,0,25.4,0,37.9,0C593.7,408.4,593.7,395.9,593.7,383.3z M57,497.9
		c0-12.9,0-25.4,0-37.8c-12.8,0-25.4,0-37.8,0c0,12.8,0,25.2,0,37.8C31.9,497.9,44.3,497.9,57,497.9z M593.7,460
		c-12.9,0-25.4,0-37.8,0c0,12.8,0,25.4,0,37.8c12.8,0,25.2,0,37.8,0C593.7,485.2,593.7,472.8,593.7,460z M19.3,536.6
		c0,12.9,0,25.4,0,37.8c12.8,0,25.4,0,37.8,0c0-12.8,0-25.2,0-37.8C44.5,536.6,32,536.6,19.3,536.6z M593.8,536.7
		c-12.9,0-25.4,0-38,0c0,12.8,0,25.3,0,37.8c12.8,0,25.4,0,38,0C593.8,561.8,593.8,549.4,593.8,536.7z M19.2,651.2
		c12.7,0,25.3,0,37.9,0c0-12.8,0-25.3,0-37.8c-12.8,0-25.4,0-37.9,0C19.2,626.1,19.2,638.6,19.2,651.2z M593.6,651.2
		c0-12.8,0-25.4,0-37.8c-12.8,0-25.4,0-37.9,0c0,12.8,0,25.2,0,37.8C568.4,651.2,580.9,651.2,593.6,651.2z"/>
	<path d="M230.1,465.3c0-67.3,0-133.9,0-201.4c58.2,33.6,116.1,66.9,174.6,100.7C346.4,398.2,288.6,431.5,230.1,465.3z"/>
</g>
</svg>
