<svg id="_3DModel_Icon" data-name="3DModel_Icon" xmlns="http://www.w3.org/2000/svg" viewBox="0 0 831.91 851.22"><defs><style>.cls-1{fill:#020202;}</style></defs><title>3DModel</title><path class="cls-1" d="M895.49,157.71a26.75,26.75,0,0,0-22.85,12.81L469.08,104.68a23.17,23.17,0,0,0-45.68,5.52v0L143.28,235.45a31.32,31.32,0,1,0-28.46,53.24l76.12,401.5a23.79,23.79,0,1,0,29.5,37.06l391.9,181.07c0,.22,0,.45,0,.67a29.26,29.26,0,1,0,52-18.42L814.16,622.72a22.32,22.32,0,0,0,15.61-41.16h0l71.1-370.86a26.77,26.77,0,0,0-5.39-53ZM671.83,442.34l-9.08,100.1L474,482a19.14,19.14,0,0,0-11.35-13.29L460.4,361.42l192.27,51.06a37.94,37.94,0,0,0,19.1,29.83ZM796.31,603.21a22.19,22.19,0,0,0,4,10.55l-140.83,239,29.66-284.27ZM632,881.36a29.4,29.4,0,0,0-10.19,6.07L227.75,709.92a23.89,23.89,0,0,0-1.27-7.5L446.42,503.27a19.07,19.07,0,0,0,24.35-5.59l190.44,61.74Zm70.81-508.19a38,38,0,0,0-40.12,10.16l-202.9-50.94L455.6,131.55h0a23.29,23.29,0,0,0,11-9.65l403.15,69.87a25.33,25.33,0,0,0,1.1,3.14ZM438.54,131.93,444,328.43,157,256.38,429.83,126.21A23,23,0,0,0,438.54,131.93ZM139,284.23a31.26,31.26,0,0,0,7-6.32l298.87,79.37,3.09,111.46a19.12,19.12,0,0,0-10.85,23.15L213.37,688.25c-.91-.4-2.82-1-2.82-1Zm674,295h0a22.34,22.34,0,0,0-11.83,7.59L690.92,551.47,702,445.66v-.1a38.08,38.08,0,0,0,22.54-53.62L877,220.24h0Z" transform="translate(-90.35 -87.03)"/></svg>