<?xml version="1.0" encoding="utf-8"?>
<!-- Generator: Adobe Illustrator 22.1.0, SVG Export Plug-In . SVG Version: 6.00 Build 0)  -->
<svg version="1.1" id="_x33_DModel_x5F_Icon" xmlns="http://www.w3.org/2000/svg" xmlns:xlink="http://www.w3.org/1999/xlink"
	 x="0px" y="0px" viewBox="0 0 1000 1000" style="enable-background:new 0 0 1000 1000;" xml:space="preserve">
<path d="M740.5,331.4H273.3c-93.1,0-168.6,75.5-168.6,168.6s75.5,168.6,168.6,168.6h467.1c93.1,0,168.6-75.5,168.6-168.6
	S833.6,331.4,740.5,331.4z M368,531.7h-56.3V588h-58v-56.3h-56.3v-58h56.3v-56.3h58v56.3H368V531.7z M481.9,616H425v-28h56.9V616z
	 M595.6,616h-56.9v-28h56.9V616z M670.1,535.5c-18.2,0-32.9-14.7-32.9-32.9c0-18.2,14.7-32.9,32.9-32.9c18.2,0,32.9,14.7,32.9,32.9
	C703,520.8,688.2,535.5,670.1,535.5z M737.9,603.6c-18.2,0-32.9-14.7-32.9-32.9s14.7-32.9,32.9-32.9c18.2,0,32.9,14.7,32.9,32.9
	S756,603.6,737.9,603.6z M737.9,467.7c-18.2,0-32.9-14.7-32.9-32.9c0-18.2,14.7-32.9,32.9-32.9c18.2,0,32.9,14.7,32.9,32.9
	C770.8,453,756,467.7,737.9,467.7z M806.4,535.5c-18.2,0-32.9-14.7-32.9-32.9c0-18.2,14.7-32.9,32.9-32.9s32.9,14.7,32.9,32.9
	C839.3,520.8,824.6,535.5,806.4,535.5z"/>
</svg>
